<svg xmlns="http://www.w3.org/2000/svg" width="24" height="24" viewBox="0 0 24 24"><g><g><path d="M23.761 23.763a.786.786 0 0 1-1.098 0l-6.217-6.12a10.155 10.155 0 0 1-6.353 2.219C4.52 19.862.001 15.415.001 9.928c0-5.485 4.518-9.93 10.092-9.93 5.575 0 10.093 4.445 10.094 9.93 0 2.565-.997 4.896-2.618 6.658l6.193 6.095a.758.758 0 0 1 0 1.082zM18.633 9.928c0-4.64-3.823-8.403-8.54-8.403-4.716 0-8.54 3.763-8.54 8.403 0 4.643 3.824 8.406 8.54 8.406 4.717 0 8.54-3.763 8.54-8.406z"/><path fill="#fff" d="M23.761 23.763a.786.786 0 0 1-1.098 0l-6.217-6.12a10.155 10.155 0 0 1-6.353 2.219C4.52 19.862.001 15.415.001 9.928c0-5.485 4.518-9.93 10.092-9.93 5.575 0 10.093 4.445 10.094 9.93 0 2.565-.997 4.896-2.618 6.658l6.193 6.095a.758.758 0 0 1 0 1.082zM18.633 9.928c0-4.64-3.823-8.403-8.54-8.403-4.716 0-8.54 3.763-8.54 8.403 0 4.643 3.824 8.406 8.54 8.406 4.717 0 8.54-3.763 8.54-8.406z"/></g></g></svg>