<svg xmlns="http://www.w3.org/2000/svg" width="26" height="26" viewBox="0 0 26 26"><g><g><path d="M23.5 11.242l-1.927 1.927-3.187 3.19c-.153.17-.34.323-.511.46a6.241 6.241 0 0 1-6.153.904 6.036 6.036 0 0 1-2.08-1.365l2.642-2.643a2.447 2.447 0 0 0 3.46 0l2.028-2.03L20.857 8.6a2.447 2.447 0 0 0-3.46-3.462l-2.454 2.456a7.07 7.07 0 0 0-4.908-.376l4.72-4.724c2.404-2.405 6.341-2.405 8.744 0 2.42 2.421 2.42 6.343 0 8.749zm-7.654 7.607l-4.618 4.672c-2.403 2.406-6.34 2.406-8.744 0-2.403-2.405-2.403-6.344 0-8.747l5.113-5.118c.068-.068.154-.153.239-.222a6.191 6.191 0 0 1 6.426-1.141c.75.288 1.465.749 2.079 1.363L13.699 12.3a2.446 2.446 0 0 0-3.46 0l-5.113 5.115a2.447 2.447 0 1 0 3.46 3.463l2.352-2.355c2.011.803 2.557.871 4.908.326z"/><path fill="#c7b299" d="M23.5 11.242l-1.927 1.927-3.187 3.19c-.153.17-.34.323-.511.46a6.241 6.241 0 0 1-6.153.904 6.036 6.036 0 0 1-2.08-1.365l2.642-2.643a2.447 2.447 0 0 0 3.46 0l2.028-2.03L20.857 8.6a2.447 2.447 0 0 0-3.46-3.462l-2.454 2.456a7.07 7.07 0 0 0-4.908-.376l4.72-4.724c2.404-2.405 6.341-2.405 8.744 0 2.42 2.421 2.42 6.343 0 8.749zm-7.654 7.607l-4.618 4.672c-2.403 2.406-6.34 2.406-8.744 0-2.403-2.405-2.403-6.344 0-8.747l5.113-5.118c.068-.068.154-.153.239-.222a6.191 6.191 0 0 1 6.426-1.141c.75.288 1.465.749 2.079 1.363L13.699 12.3a2.446 2.446 0 0 0-3.46 0l-5.113 5.115a2.447 2.447 0 1 0 3.46 3.463l2.352-2.355c2.011.803 2.557.871 4.908.326z"/></g></g></svg>