<svg xmlns="http://www.w3.org/2000/svg" width="26" height="25" viewBox="0 0 26 25"><g><g><path d="M17.417 7.847c.318.643.047 1.42-.607 1.733-.185.088-.381.13-.576.13-.487 0-.954-.266-1.182-.728a4.147 4.147 0 0 0-3.748-2.308c-.726 0-1.315-.58-1.315-1.297 0-.715.589-1.296 1.315-1.296 2.62 0 4.964 1.443 6.113 3.766zm8.04 16.324a1.649 1.649 0 0 1-1.164.474c-.42 0-.842-.157-1.163-.474l-4.335-4.27a11.218 11.218 0 0 1-6.836 2.317C5.793 22.218.777 17.275.777 11.202.777 5.128 5.793.185 11.96.185S23.14 5.128 23.14 11.202c0 2.37-.77 4.562-2.068 6.36l4.383 4.319a1.602 1.602 0 0 1 0 2.29zM11.96 19.627c2.104 0 4.03-.757 5.521-2.004.46-.384.874-.818 1.243-1.288a8.287 8.287 0 0 0 1.786-5.133c0-4.645-3.836-8.424-8.55-8.424-4.715 0-8.551 3.779-8.551 8.424 0 4.644 3.836 8.423 8.55 8.425z"/><path fill="#fff" d="M17.417 7.847c.318.643.047 1.42-.607 1.733-.185.088-.381.13-.576.13-.487 0-.954-.266-1.182-.728a4.147 4.147 0 0 0-3.748-2.308c-.726 0-1.315-.58-1.315-1.297 0-.715.589-1.296 1.315-1.296 2.62 0 4.964 1.443 6.113 3.766zm8.04 16.324a1.649 1.649 0 0 1-1.164.474c-.42 0-.842-.157-1.163-.474l-4.335-4.27a11.218 11.218 0 0 1-6.836 2.317C5.793 22.218.777 17.275.777 11.202.777 5.128 5.793.185 11.96.185S23.14 5.128 23.14 11.202c0 2.37-.77 4.562-2.068 6.36l4.383 4.319a1.602 1.602 0 0 1 0 2.29zM11.96 19.627c2.104 0 4.03-.757 5.521-2.004.46-.384.874-.818 1.243-1.288a8.287 8.287 0 0 0 1.786-5.133c0-4.645-3.836-8.424-8.55-8.424-4.715 0-8.551 3.779-8.551 8.424 0 4.644 3.836 8.423 8.55 8.425z"/></g></g></svg>